<?xml version="1.0" encoding="UTF-8" standalone="no"?>
<!DOCTYPE svg PUBLIC "-//W3C//DTD SVG 1.1//EN" "http://www.w3.org/Graphics/SVG/1.1/DTD/svg11.dtd">
<svg xmlns="http://www.w3.org/2000/svg" version="1.1" viewBox="0.00 0.00 445.00 445.00">
<g stroke-width="2.00" fill="none" stroke-linecap="butt">
<path stroke="#8cb9db" vector-effect="non-scaling-stroke" d="
  M 412.40 221.99
  A 189.41 189.41 0.0 0 0 222.99 32.58
  A 189.41 189.41 0.0 0 0 33.58 221.99
  A 189.41 189.41 0.0 0 0 222.99 411.40
  A 189.41 189.41 0.0 0 0 412.40 221.99"
/>
<path stroke="#8cb9db" vector-effect="non-scaling-stroke" d="
  M 388.69 221.99
  A 165.70 165.70 0.0 0 0 222.99 56.29
  A 165.70 165.70 0.0 0 0 57.29 221.99
  A 165.70 165.70 0.0 0 0 222.99 387.69
  A 165.70 165.70 0.0 0 0 388.69 221.99"
/>
<path stroke="#8cb9db" vector-effect="non-scaling-stroke" d="
  M 223.3509 152.7975
  A 33.63 32.98 89.3 0 0 255.9175 118.7671
  A 33.63 32.98 89.3 0 0 222.5291 85.5425
  A 33.63 32.98 89.3 0 0 189.9625 119.5729
  A 33.63 32.98 89.3 0 0 223.3509 152.7975"
/>
<path stroke="#8cb9db" vector-effect="non-scaling-stroke" d="
  M 220.36 263.70
  C 224.59 257.81 228.46 264.66 229.21 268.49
  Q 237.50 311.22 248.22 344.27
  C 252.04 356.06 269.37 355.23 271.28 342.61
  Q 271.69 339.95 270.43 336.06
  C 256.56 293.16 246.19 244.71 246.45 197.73
  C 246.51 188.15 252.68 186.56 261.24 186.10
  Q 289.00 184.61 316.50 180.63
  Q 322.06 179.83 324.28 178.66
  C 333.52 173.82 332.11 159.16 321.78 156.63
  Q 319.48 156.07 314.23 156.87
  Q 282.13 161.78 246.75 162.90
  Q 186.63 164.81 129.59 158.55
  Q 126.02 158.16 123.95 158.79
  C 114.79 161.56 112.59 173.04 119.68 179.25
  C 122.72 181.92 126.72 182.25 130.75 182.63
  Q 162.36 185.63 190.41 186.88
  Q 196.93 187.17 199.74 192.35
  Q 201.26 195.16 201.25 200.86
  C 201.13 246.51 190.94 293.26 176.76 336.50
  C 171.75 351.76 194.00 360.34 199.61 343.18
  Q 211.80 305.89 218.70 267.24
  Q 218.99 265.60 220.36 263.70"
/>
</g>
<path fill="#1972b7" d="
  M 215.14 0.00
  L 229.98 0.00
  C 347.92 4.92 440.03 97.42 445.00 215.14
  L 445.00 229.98
  C 440.09 348.16 347.51 439.87 229.86 445.00
  L 215.02 445.00
  C 96.95 440.11 5.01 347.46 0.00 229.86
  L 0.00 215.02
  C 5.05 97.25 97.19 4.89 215.14 0.00
  Z
  M 412.40 221.99
  A 189.41 189.41 0.0 0 0 222.99 32.58
  A 189.41 189.41 0.0 0 0 33.58 221.99
  A 189.41 189.41 0.0 0 0 222.99 411.40
  A 189.41 189.41 0.0 0 0 412.40 221.99
  Z"
/>
<path fill="#ffffff" d="
  M 412.40 221.99
  A 189.41 189.41 0.0 0 1 222.99 411.40
  A 189.41 189.41 0.0 0 1 33.58 221.99
  A 189.41 189.41 0.0 0 1 222.99 32.58
  A 189.41 189.41 0.0 0 1 412.40 221.99
  Z
  M 388.69 221.99
  A 165.70 165.70 0.0 0 0 222.99 56.29
  A 165.70 165.70 0.0 0 0 57.29 221.99
  A 165.70 165.70 0.0 0 0 222.99 387.69
  A 165.70 165.70 0.0 0 0 388.69 221.99
  Z"
/>
<path fill="#1972b7" d="
  M 388.69 221.99
  A 165.70 165.70 0.0 0 1 222.99 387.69
  A 165.70 165.70 0.0 0 1 57.29 221.99
  A 165.70 165.70 0.0 0 1 222.99 56.29
  A 165.70 165.70 0.0 0 1 388.69 221.99
  Z
  M 223.3509 152.7975
  A 33.63 32.98 89.3 0 0 255.9175 118.7671
  A 33.63 32.98 89.3 0 0 222.5291 85.5425
  A 33.63 32.98 89.3 0 0 189.9625 119.5729
  A 33.63 32.98 89.3 0 0 223.3509 152.7975
  Z
  M 220.36 263.70
  C 224.59 257.81 228.46 264.66 229.21 268.49
  Q 237.50 311.22 248.22 344.27
  C 252.04 356.06 269.37 355.23 271.28 342.61
  Q 271.69 339.95 270.43 336.06
  C 256.56 293.16 246.19 244.71 246.45 197.73
  C 246.51 188.15 252.68 186.56 261.24 186.10
  Q 289.00 184.61 316.50 180.63
  Q 322.06 179.83 324.28 178.66
  C 333.52 173.82 332.11 159.16 321.78 156.63
  Q 319.48 156.07 314.23 156.87
  Q 282.13 161.78 246.75 162.90
  Q 186.63 164.81 129.59 158.55
  Q 126.02 158.16 123.95 158.79
  C 114.79 161.56 112.59 173.04 119.68 179.25
  C 122.72 181.92 126.72 182.25 130.75 182.63
  Q 162.36 185.63 190.41 186.88
  Q 196.93 187.17 199.74 192.35
  Q 201.26 195.16 201.25 200.86
  C 201.13 246.51 190.94 293.26 176.76 336.50
  C 171.75 351.76 194.00 360.34 199.61 343.18
  Q 211.80 305.89 218.70 267.24
  Q 218.99 265.60 220.36 263.70
  Z"
/>
<ellipse fill="#ffffff" cx="0.00" cy="0.00" transform="translate(222.94,119.17) rotate(89.3)" rx="33.63" ry="32.98"/>
<path fill="#ffffff" d="
  M 229.21 268.49
  C 228.46 264.66 224.59 257.81 220.36 263.70
  Q 218.99 265.60 218.70 267.24
  Q 211.80 305.89 199.61 343.18
  C 194.00 360.34 171.75 351.76 176.76 336.50
  C 190.94 293.26 201.13 246.51 201.25 200.86
  Q 201.26 195.16 199.74 192.35
  Q 196.93 187.17 190.41 186.88
  Q 162.36 185.63 130.75 182.63
  C 126.72 182.25 122.72 181.92 119.68 179.25
  C 112.59 173.04 114.79 161.56 123.95 158.79
  Q 126.02 158.16 129.59 158.55
  Q 186.63 164.81 246.75 162.90
  Q 282.13 161.78 314.23 156.87
  Q 319.48 156.07 321.78 156.63
  C 332.11 159.16 333.52 173.82 324.28 178.66
  Q 322.06 179.83 316.50 180.63
  Q 289.00 184.61 261.24 186.10
  C 252.68 186.56 246.51 188.15 246.45 197.73
  C 246.19 244.71 256.56 293.16 270.43 336.06
  Q 271.69 339.95 271.28 342.61
  C 269.37 355.23 252.04 356.06 248.22 344.27
  Q 237.50 311.22 229.21 268.49
  Z"
/>
</svg>
